<svg xmlns="http://www.w3.org/2000/svg" width="36.18" height="36.18" viewBox="0 0 36.18 36.18"><defs><style>.a{fill:#f1efeb;}</style></defs><g transform="translate(17.383 26.522)"><path class="a" d="M246.707,375.333a.707.707,0,0,0-.707.707v.011a.707.707,0,1,0,1.413,0v-.011A.707.707,0,0,0,246.707,375.333Z" transform="translate(-246 -375.333)"/></g><path class="a" d="M29.255,0H6.925A6.933,6.933,0,0,0,0,6.925v22.33A6.933,6.933,0,0,0,6.925,36.18H18.09a.707.707,0,0,0,.707-.707V30a.707.707,0,1,0-1.413,0v4.77H6.925a5.518,5.518,0,0,1-5.512-5.512V6.925A5.518,5.518,0,0,1,6.925,1.413h22.33a5.518,5.518,0,0,1,5.512,5.512v22.33a5.518,5.518,0,0,1-5.512,5.512H24.732V22.294h4.1a.707.707,0,0,0,.7-.636l.508-5.049a.707.707,0,0,0-.7-.777H24.732V13.181c0-.48.153-.658.564-.658h4.01a.707.707,0,0,0,.707-.707V6.893a.707.707,0,0,0-.707-.707H24.04A6.233,6.233,0,0,0,18.672,8.6a7.437,7.437,0,0,0-1.289,4.3v2.968H13.921a.707.707,0,0,0-.707.707v5.018a.707.707,0,0,0,.707.707h3.463v2.014a.707.707,0,1,0,1.413,0V21.588a.707.707,0,0,0-.707-.707H14.627v-3.6H18.09a.707.707,0,0,0,.707-.707V12.9c0-1.592.511-5.3,5.244-5.3H28.6v3.509H25.3a1.9,1.9,0,0,0-1.977,2.072v3.358a.707.707,0,0,0,.707.707h4.531l-.366,3.636H24.026a.707.707,0,0,0-.707.707V35.473a.707.707,0,0,0,.707.707h5.229a6.933,6.933,0,0,0,6.925-6.925V6.925A6.933,6.933,0,0,0,29.255,0Z"/></svg>