<svg xmlns="http://www.w3.org/2000/svg" width="36.23" height="36.231" viewBox="0 0 36.23 36.231"><defs><style>.a{fill:#f1efeb;}</style></defs><path class="a" d="M25.616,0h-15A10.626,10.626,0,0,0,0,10.614v15A10.626,10.626,0,0,0,10.614,36.231h15A10.626,10.626,0,0,0,36.231,25.616v-15A10.626,10.626,0,0,0,25.616,0Zm9.2,25.616a9.21,9.21,0,0,1-9.2,9.2h-15a9.21,9.21,0,0,1-9.2-9.2v-15a9.21,9.21,0,0,1,9.2-9.2h15a9.21,9.21,0,0,1,9.2,9.2Z"/><g transform="translate(3.114 3.114)"><path class="a" d="M66.5,44h-15A7.509,7.509,0,0,0,44,51.5v15A7.509,7.509,0,0,0,51.5,74h4.317a.708.708,0,0,0,0-1.415H51.5A6.093,6.093,0,0,1,45.415,66.5v-15A6.093,6.093,0,0,1,51.5,45.415h15A6.093,6.093,0,0,1,72.588,51.5v15A6.093,6.093,0,0,1,66.5,72.588H62.233a.708.708,0,0,0,0,1.415H66.5A7.509,7.509,0,0,0,74,66.5v-15A7.509,7.509,0,0,0,66.5,44Z" transform="translate(-44 -44)"/></g><g transform="translate(17.408 31.702)"><path class="a" d="M247.208,448.207a.707.707,0,1,0,.207.5A.713.713,0,0,0,247.208,448.207Z" transform="translate(-246 -448)"/></g><g transform="translate(11.189 10.795)"><path class="a" d="M159.368,152.771a.708.708,0,0,0-1-.033l-.031.03a.708.708,0,1,0,.971,1.029l.028-.026A.708.708,0,0,0,159.368,152.771Z" transform="translate(-158.115 -152.547)"/></g><g transform="translate(8.35 8.35)"><path class="a" d="M127.765,118a9.793,9.793,0,0,0-4.473,1.083.708.708,0,0,0,.649,1.258,8.257,8.257,0,0,1,3.824-.925,8.346,8.346,0,1,1-7.266,4.233.708.708,0,1,0-1.231-.7,9.766,9.766,0,1,0,8.5-4.95Z" transform="translate(-118 -118)"/></g><g transform="translate(11.747 11.747)"><path class="a" d="M172.369,166a6.369,6.369,0,1,0,6.369,6.369A6.376,6.376,0,0,0,172.369,166Zm0,11.322a4.953,4.953,0,1,1,4.953-4.953A4.959,4.959,0,0,1,172.369,177.322Z" transform="translate(-166 -166)"/></g><g transform="translate(24.714 6.139)"><path class="a" d="M351.939,86.75a2.689,2.689,0,1,0,2.689,2.689A2.692,2.692,0,0,0,351.939,86.75Zm0,3.963a1.274,1.274,0,1,1,1.274-1.274A1.275,1.275,0,0,1,351.939,90.713Z" transform="translate(-349.25 -86.75)"/></g></svg>