<svg xmlns="http://www.w3.org/2000/svg" width="39.213" height="36.477" viewBox="0 0 39.213 36.477"><defs><style>.a{fill:#f1efeb;}</style></defs><g transform="translate(25.966 2.553)"><g transform="translate(0 0)"><path class="a" d="M340.345,51.437l-.009-.009a.766.766,0,0,0-1.085,1.081l0,0a.766.766,0,0,0,1.09-1.077Z" transform="translate(-339.028 -51.201)"/></g></g><g transform="translate(0 0)"><path class="a" d="M39.2,45.655a1.168,1.168,0,0,0-.773-.948l-.411-.145a12.776,12.776,0,0,1-7.292-6.5.857.857,0,0,1,.435-1.164l2.882-1.226A2.15,2.15,0,0,0,35.19,32.9,2.049,2.049,0,0,0,32.6,31.734l-2.412.864a.16.16,0,0,1-.159-.03l-.01-.008a.134.134,0,0,1-.047-.1V27.216a9.26,9.26,0,0,0-.914-4.038.766.766,0,1,0-1.381.662,7.739,7.739,0,0,1,.764,3.375v5.242a1.664,1.664,0,0,0,.586,1.269l.01.008a1.7,1.7,0,0,0,1.671.305l2.409-.863a.52.52,0,0,1,.659.3.611.611,0,0,1-.326.788l-2.882,1.226a2.389,2.389,0,0,0-1.213,3.243A14.294,14.294,0,0,0,37.208,45.9a9,9,0,0,1-3.04.9,1.86,1.86,0,0,0-1.534,1.282L32.2,49.456a.007.007,0,0,1-.008,0l-2.413-.442a4.792,4.792,0,0,0-3.484.7l-3.862,2.5a3.684,3.684,0,0,1-2.009.594H18.788a3.683,3.683,0,0,1-2.009-.594l-3.862-2.5a4.791,4.791,0,0,0-3.484-.7l-2.413.442a.007.007,0,0,1-.008,0L6.58,48.084A1.86,1.86,0,0,0,5.047,46.8a8.994,8.994,0,0,1-3.04-.9,14.293,14.293,0,0,0,7.858-7.169,2.389,2.389,0,0,0-1.213-3.243L5.77,34.26a.611.611,0,0,1-.326-.788.521.521,0,0,1,.659-.3l2.409.863a1.7,1.7,0,0,0,1.671-.306l.009-.008a1.663,1.663,0,0,0,.586-1.269V27.216A7.813,7.813,0,0,1,18.59,19.4h2.033a7.732,7.732,0,0,1,3.482.817.766.766,0,1,0,.684-1.371,9.251,9.251,0,0,0-4.166-.978H18.59a9.345,9.345,0,0,0-9.345,9.347v5.242a.134.134,0,0,1-.047.1l-.009.008a.16.16,0,0,1-.159.03l-2.412-.864A2.049,2.049,0,0,0,4.025,32.9,2.15,2.15,0,0,0,5.17,35.669L8.052,36.9a.857.857,0,0,1,.435,1.164,12.775,12.775,0,0,1-7.292,6.5l-.411.145A1.172,1.172,0,0,0,.5,46.774a9.641,9.641,0,0,0,4.352,1.548.324.324,0,0,1,.267.223l.432,1.372A1.541,1.541,0,0,0,7.3,50.967l2.413-.442A3.265,3.265,0,0,1,12.084,51l3.862,2.5a5.211,5.211,0,0,0,2.842.841h1.639a5.212,5.212,0,0,0,2.842-.841L27.131,51a3.267,3.267,0,0,1,2.374-.474l2.413.442a1.541,1.541,0,0,0,1.745-1.051l.432-1.372a.324.324,0,0,1,.267-.222,9.641,9.641,0,0,0,4.352-1.548A1.167,1.167,0,0,0,39.2,45.655Z" transform="translate(-0.001 -17.869)"/></g><g transform="translate(6.987 23.657)"><path class="a" d="M95.823,326.886a.766.766,0,0,0-1.066.194A16.523,16.523,0,0,1,92.173,330c-.214.191-.435.378-.657.556a.766.766,0,1,0,.96,1.194c.242-.195.484-.4.717-.607a18.057,18.057,0,0,0,2.824-3.19A.766.766,0,0,0,95.823,326.886Z" transform="translate(-91.23 -326.749)"/></g><g transform="translate(11.713 21.368)"><path class="a" d="M154.037,296.944a.767.767,0,0,0-1.023.354l0,.008a.766.766,0,0,0,1.38.666l0-.008A.765.765,0,0,0,154.037,296.944Z" transform="translate(-152.935 -296.867)"/></g></svg>