<svg xmlns="http://www.w3.org/2000/svg" width="36.18" height="29.611" viewBox="0 0 36.18 29.611"><defs><style>.a{fill:#f1efeb;}</style></defs><path class="a" d="M18.831,44.372a18.808,18.808,0,0,1-15.407-.549,14.882,14.882,0,0,0,8.2-3.068.707.707,0,0,0-.439-1.24A6.209,6.209,0,0,1,6.41,37.287,6.829,6.829,0,0,1,5.6,36.061a11.126,11.126,0,0,0,2.273-.242.707.707,0,0,0,.005-1.374,6.117,6.117,0,0,1-5.051-5.177,7.1,7.1,0,0,0,2.359.434A.707.707,0,0,0,5.6,28.438c-3.571-2.781-2.954-6.052-2.369-7.6a22.172,22.172,0,0,0,1.61,1.532A.707.707,0,1,0,5.769,21.3a19.371,19.371,0,0,1-2.175-2.183A.707.707,0,0,0,2.45,19.2,8.394,8.394,0,0,0,1.4,22.667,7.325,7.325,0,0,0,2.964,27.8a4.548,4.548,0,0,1-.53-.281.707.707,0,0,0-1.077.544,7.724,7.724,0,0,0,.591,3.275,7.143,7.143,0,0,0,2.721,3.27L4.6,34.6a.707.707,0,0,0-.758.886,7.832,7.832,0,0,0,1.444,2.655,7.455,7.455,0,0,0,3.943,2.517A14.58,14.58,0,0,1,.773,42.385a.707.707,0,0,0-.454,1.294,20.763,20.763,0,0,0,11.432,3.5,20.253,20.253,0,0,0,7.61-1.494.707.707,0,1,0-.53-1.31Zm0,0" transform="translate(0 -17.566)"/><path class="a" d="M157.909,4.075a.707.707,0,0,0-.805-.169c-.41.181-.81.33-1.186.452a4.83,4.83,0,0,0,1.266-2.652.706.706,0,0,0-1.112-.612,10.642,10.642,0,0,1-3.952,1.582A7.732,7.732,0,0,0,146.711.5a7.812,7.812,0,0,0-7.759,8.7,14.676,14.676,0,0,1-6.731-1.878.707.707,0,0,0-.656,1.252,15.187,15.187,0,0,0,8.29,1.982.707.707,0,0,0,.612-.856,6.4,6.4,0,0,1,6.244-7.792,6.34,6.34,0,0,1,4.639,1.993.705.705,0,0,0,.57.218,11.168,11.168,0,0,0,3.027-.824,8.609,8.609,0,0,1-1.871,1.735.707.707,0,0,0,.461,1.282,12.036,12.036,0,0,0,1.943-.357,11.117,11.117,0,0,1-2.051,1.758.707.707,0,0,0-.322.593,20.439,20.439,0,0,1-7.642,16.259.707.707,0,0,0,.873,1.111,21.258,21.258,0,0,0,5.923-7.335,22.554,22.554,0,0,0,2.257-9.659,12.16,12.16,0,0,0,3.491-3.8A.707.707,0,0,0,157.909,4.075Zm0,0" transform="translate(-121.916 -0.5)"/><path class="a" d="M296.632,361.6h0a.707.707,0,1,0,.958.287A.706.706,0,0,0,296.632,361.6Zm0,0" transform="translate(-275.325 -336.001)"/><path class="a" d="M97.14,76.584a.707.707,0,0,0,.8-1.162h0a.707.707,0,1,0-.8,1.162Zm0,0" transform="translate(-89.992 -70.01)"/></svg>