<svg xmlns="http://www.w3.org/2000/svg" width="50.793" height="36.18" viewBox="0 0 50.793 36.18"><defs><style>.a{fill:#f1efeb;}</style></defs><path class="a" d="M32.723,39.646c-2.331.079-4.8.119-7.326.119A131.8,131.8,0,0,1,8.08,38.887c-3.769-.587-5.266-2.343-5.723-6.709a97.03,97.03,0,0,1,0-17.037C2.814,10.776,4.312,9.02,8.08,8.433c.612-.1,1.331-.186,2.137-.27a.992.992,0,1,0-.2-1.974c-.84.087-1.593.183-2.238.283A8.248,8.248,0,0,0,2.589,8.956,10.2,10.2,0,0,0,.384,14.935a99.4,99.4,0,0,0,0,17.449,10.2,10.2,0,0,0,2.206,5.979,8.245,8.245,0,0,0,5.185,2.484,133.572,133.572,0,0,0,17.622.9c2.553,0,5.04-.04,7.393-.12a.992.992,0,0,0-.067-1.983Zm0,0" transform="translate(0 -5.57)"/><path class="a" d="M205.179,9.365a10.2,10.2,0,0,0-2.205-5.979A8.247,8.247,0,0,0,197.788.9,133.58,133.58,0,0,0,180.166,0c-2.553,0-5.04.041-7.393.12A.992.992,0,1,0,172.84,2.1c2.33-.079,4.8-.119,7.326-.119a131.812,131.812,0,0,1,17.316.878c3.768.588,5.266,2.343,5.723,6.709a96.956,96.956,0,0,1,0,17.037c-.457,4.366-1.954,6.121-5.723,6.709-.612.1-1.331.186-2.138.27a.992.992,0,0,0,.1,1.979c.034,0,.069,0,.1-.005.84-.087,1.593-.182,2.238-.283a8.249,8.249,0,0,0,5.185-2.484,10.2,10.2,0,0,0,2.205-5.979A99.4,99.4,0,0,0,205.179,9.365Zm0,0" transform="translate(-154.77)"/><path class="a" d="M213.183,103.609,200.9,96.023a.992.992,0,0,0-1.514.844v15.173a.992.992,0,0,0,1.514.844l12.279-7.586a.992.992,0,0,0,0-1.688Zm-11.808,6.651V98.646l9.4,5.807Zm0,0" transform="translate(-179.61 -86.363)"/><path class="a" d="M132.84,5.016l.067,0a.992.992,0,0,0-.132-1.98h0a.992.992,0,0,0,.066,1.982Zm0,0" transform="translate(-118.768 -2.731)"/><path class="a" d="M361.072,341.664a.992.992,0,0,0,.065,1.982l.067,0h0a.992.992,0,0,0-.133-1.98Zm0,0" transform="translate(-324.417 -307.767)"/></svg>