<svg xmlns="http://www.w3.org/2000/svg" width="32.001" height="32.001" viewBox="0 0 32.001 32.001"><defs><style>.a{fill:#ba1f6a;}.b{fill:#a7a6a3;}</style></defs><path class="a" d="M156.512,149.988a6.109,6.109,0,1,0,4.334,1.789A6.109,6.109,0,0,0,156.512,149.988Zm3.4,9.527a4.827,4.827,0,1,1,1.4-3.4A4.779,4.779,0,0,1,159.915,159.515Zm0,0" transform="translate(-140.511 -140.111)"/><path class="b" d="M31.342,15.342H29.5A13.492,13.492,0,0,0,16.659,2.506V.658a.658.658,0,0,0-1.317,0V2.506A13.492,13.492,0,0,0,2.506,15.342H.658a.658.658,0,0,0,0,1.317H2.506A13.492,13.492,0,0,0,15.342,29.5v1.847a.658.658,0,0,0,1.317,0V29.5A13.492,13.492,0,0,0,29.5,16.659h1.847a.658.658,0,0,0,0-1.317Zm-6.715,9.285a12.1,12.1,0,0,1-7.968,3.549V25.341a.658.658,0,1,0-1.317,0v2.835A12.173,12.173,0,0,1,3.825,16.659H6.66a.658.658,0,0,0,0-1.317H3.825A12.173,12.173,0,0,1,15.342,3.825V6.661a.658.658,0,1,0,1.317,0V3.825A12.173,12.173,0,0,1,28.176,15.342H25.341a.658.658,0,1,0,0,1.317h2.835A12.1,12.1,0,0,1,24.627,24.627Zm0,0"/></svg>