<svg xmlns="http://www.w3.org/2000/svg" width="23.355" height="30.012" viewBox="0 0 23.355 30.012"><defs><style>.a{fill:#888;}</style></defs><g transform="translate(-56.786)"><g transform="translate(56.786)"><path class="a" d="M79.7,16.337a.446.446,0,0,0,.446-.446V2.731A2.735,2.735,0,0,0,77.409,0H59.9a3.121,3.121,0,0,0-3.117,3.117V26.9a3.088,3.088,0,0,0,.31,1.356A3.137,3.137,0,0,0,59.9,30.012H77.409a2.735,2.735,0,0,0,2.731-2.731V25.026a.446.446,0,1,0-.891,0v2.255a1.842,1.842,0,0,1-1.84,1.84H59.9A2.24,2.24,0,0,1,57.9,27.863,2.226,2.226,0,0,1,59.9,24.67H77.409a2.729,2.729,0,0,0,2.731-2.732v-4.56a.446.446,0,0,0-.891,0v4.56a1.838,1.838,0,0,1-1.84,1.841H59.9a3.1,3.1,0,0,0-2.2.913l-.021.022V3.117A2.228,2.228,0,0,1,59.9.891h.473V9.043a.446.446,0,0,0,.7.369l2.246-1.519,2.246,1.519a.446.446,0,0,0,.7-.369V5.573a.446.446,0,0,0-.891,0V8.2l-1.8-1.218a.446.446,0,0,0-.5,0L61.268,8.2V.891h4.1v3.2a.446.446,0,1,0,.891,0V.891h11.15a1.842,1.842,0,0,1,1.84,1.84v13.16A.446.446,0,0,0,79.7,16.337Z" transform="translate(-56.786)"/></g><g transform="translate(58.925 25.294)"><path class="a" d="M112.608,431.505a.446.446,0,0,0-.446.446v1.314a.558.558,0,0,1-.558.558H93.729a.446.446,0,1,0,0,.891h17.876a1.451,1.451,0,0,0,1.449-1.449v-1.314A.446.446,0,0,0,112.608,431.505Z" transform="translate(-93.283 -431.505)"/></g><g transform="translate(58.925 25.749)"><path class="a" d="M111.047,439.276H93.729a.446.446,0,0,0,0,.891h17.318a.446.446,0,0,0,0-.891Z" transform="translate(-93.283 -439.276)"/></g></g></svg>