<svg xmlns="http://www.w3.org/2000/svg" xmlns:xlink="http://www.w3.org/1999/xlink" width="359" height="50.803" viewBox="0 0 359 50.803"><defs><style>.a{fill:rgba(255,255,255,0);}.b{fill:#a6a6a6;}.c,.d,.k{fill:#fff;}.c{stroke:#fff;stroke-miterlimit:28.347;stroke-width:0.772px;}.e{fill:url(#a);}.f{fill:url(#b);}.g{fill:url(#c);}.h{fill:url(#d);}.i{opacity:0.2;}.j{opacity:0.12;}.k{opacity:0.25;}</style><linearGradient id="a" x1="-16.895" y1="8.31" x2="-17.231" y2="8.483" gradientUnits="objectBoundingBox"><stop offset="0" stop-color="#00a0ff"/><stop offset="0.01" stop-color="#00a1ff"/><stop offset="0.26" stop-color="#00beff"/><stop offset="0.51" stop-color="#00d2ff"/><stop offset="0.76" stop-color="#00dfff"/><stop offset="1" stop-color="#00e3ff"/></linearGradient><linearGradient id="b" x1="-22.632" y1="23.693" x2="-23.253" y2="23.693" gradientUnits="objectBoundingBox"><stop offset="0" stop-color="#ffe000"/><stop offset="0.41" stop-color="#ffbd00"/><stop offset="0.78" stop-color="orange"/><stop offset="1" stop-color="#ff9c00"/></linearGradient><linearGradient id="c" x1="-13.083" y1="15.504" x2="-13.437" y2="15.961" gradientUnits="objectBoundingBox"><stop offset="0" stop-color="#ff3a44"/><stop offset="1" stop-color="#c31162"/></linearGradient><linearGradient id="d" x1="-13.301" y1="16.059" x2="-13.144" y2="16.263" gradientUnits="objectBoundingBox"><stop offset="0" stop-color="#32a071"/><stop offset="0.07" stop-color="#2da771"/><stop offset="0.48" stop-color="#15cf74"/><stop offset="0.8" stop-color="#06e775"/><stop offset="1" stop-color="#00f076"/></linearGradient></defs><g transform="translate(-0.218 -0.792)"><g transform="translate(187.859 0.822)"><rect class="a" width="130.964" height="50.698" transform="translate(0 0.075)"/><path d="M6.647,81.4H165.312a6.341,6.341,0,0,1,6.347,6.347v38.08a6.341,6.341,0,0,1-6.347,6.347H6.647A6.341,6.341,0,0,1,.3,125.826V87.747A6.341,6.341,0,0,1,6.647,81.4Z" transform="translate(-0.3 -81.4)"/><path class="b" d="M165.237,82.371a5.322,5.322,0,0,1,5.3,5.3v38.08a5.322,5.322,0,0,1-5.3,5.3H6.647a5.322,5.322,0,0,1-5.3-5.3h0V87.672a5.322,5.322,0,0,1,5.3-5.3H165.237m0-.971H6.647A6.341,6.341,0,0,0,.3,87.747h0v38.08a6.341,6.341,0,0,0,6.347,6.347H165.312a6.341,6.341,0,0,0,6.347-6.347V87.747A6.454,6.454,0,0,0,165.237,81.4Z" transform="translate(-0.3 -81.4)"/><path class="c" d="M82.368,97.832a2.933,2.933,0,0,1-.9,2.315A3.7,3.7,0,0,1,75.2,97.459a3.867,3.867,0,0,1,1.045-2.613A3.731,3.731,0,0,1,78.859,93.8a3.03,3.03,0,0,1,1.419.3,2.441,2.441,0,0,1,1.12.821l-.6.6a2.152,2.152,0,0,0-1.941-.821A2.741,2.741,0,0,0,76.1,97.384v.075a2.87,2.87,0,0,0,2.763,2.837,2.985,2.985,0,0,0,1.941-.747,2.04,2.04,0,0,0,.6-1.419H78.859v-.821h3.435a1.271,1.271,0,0,1,.075.523Z" transform="translate(-19.275 -84.541)"/><path class="c" d="M90.607,95.021H87.471v2.24h2.912v.821H87.471v2.24h3.136v.9H86.5V94.2h4.107Z" transform="translate(-22.138 -84.643)"/><path class="c" d="M96.237,101.093h-.9V94.9H93.4V94h4.928v.9H96.312v6.2Z" transform="translate(-23.886 -84.592)"/><path class="c" d="M104.5,101.119V94.1h.9v7.019Z" transform="translate(-26.698 -84.617)"/><path class="c" d="M110.137,101.093h-.9V94.9H107.3V94h4.853v.9h-1.941v6.2Z" transform="translate(-27.407 -84.592)"/><path class="c" d="M123.891,100.166a3.65,3.65,0,0,1-5.152,0,3.741,3.741,0,0,1,0-5.227,3.65,3.65,0,0,1,5.152,0h0A3.891,3.891,0,0,1,123.891,100.166Zm-4.48-.6a2.7,2.7,0,0,0,3.808,0,2.984,2.984,0,0,0,0-4.032,2.7,2.7,0,0,0-3.808,0A2.984,2.984,0,0,0,119.411,99.568Z" transform="translate(-30.036 -84.56)"/><path class="c" d="M129.1,101.119V94.1h1.12l3.435,5.451h0V94.1h.9v7.019h-.971L130,95.369h0v5.749h-.9Z" transform="translate(-32.93 -84.617)"/><path class="d" d="M106.53,115.449a4.965,4.965,0,1,0,5,4.928,4.972,4.972,0,0,0-4.853-5C106.6,115.449,106.6,115.449,106.53,115.449Zm0,7.989a3.03,3.03,0,1,1,2.837-3.211v.224a2.914,2.914,0,0,1-2.837,2.987Zm-10.976-7.989a4.929,4.929,0,1,0,.149,0Zm0,7.989a3,3,0,1,1,2.763-3.211v.224a2.76,2.76,0,0,1-2.763,2.987Zm-12.992-6.421v2.091H87.64a4.648,4.648,0,0,1-1.195,2.688,5.18,5.18,0,0,1-3.883,1.568,5.6,5.6,0,1,1,0-11.2,5.425,5.425,0,0,1,3.808,1.493l1.493-1.493a7.1,7.1,0,0,0-5.3-2.165,7.771,7.771,0,1,0-.6,15.531h.6a6.884,6.884,0,0,0,5.376-2.165,7.494,7.494,0,0,0,1.867-4.928,4.134,4.134,0,0,0-.149-1.344l-7.093-.075Zm53.162,1.643a4.586,4.586,0,0,0-8.96,1.493v.3a4.908,4.908,0,0,0,4.779,5h.149a5.077,5.077,0,0,0,4.181-2.24l-1.717-1.195a2.792,2.792,0,0,1-2.464,1.419,2.465,2.465,0,0,1-2.389-1.493l6.645-2.763ZM128.93,120.3a2.749,2.749,0,0,1,2.539-2.912h.075a1.986,1.986,0,0,1,1.867,1.045Zm-5.376,4.853h2.165V110.521h-2.165Zm-3.584-8.587H119.9a3.577,3.577,0,0,0-2.613-1.195,5.008,5.008,0,0,0,0,10.005,3.577,3.577,0,0,0,2.613-1.195h.075v.821c0,1.941-1.045,2.912-2.688,2.912a2.825,2.825,0,0,1-2.539-1.792l-1.941.821a4.61,4.61,0,0,0,4.405,2.912c2.539,0,4.7-1.493,4.7-5.227v-8.96H119.9Zm-2.539,6.869a3.07,3.07,0,0,1-2.763-3.285,3.033,3.033,0,0,1,2.763-2.763,2.84,2.84,0,0,1,2.688,2.987v.075a2.724,2.724,0,0,1-2.539,2.987Zm28.6-12.992H140.8v14.635h2.165v-5.6h3.061a4.564,4.564,0,0,0,.6-9.109,1.456,1.456,0,0,1-.6.075Zm0,7.019h-3.061v-5H146.1a2.5,2.5,0,1,1-.075,5Zm13.515-2.091a4.047,4.047,0,0,0-3.883,2.24l1.941.821a2.407,2.407,0,0,1,4.331.821h0v.149a4.85,4.85,0,0,0-2.315-.6c-2.091,0-4.256,1.195-4.256,3.285a3.35,3.35,0,0,0,3.509,3.211h.075a3.089,3.089,0,0,0,2.837-1.419h.075v1.195h2.091v-5.675c.149-2.464-1.792-3.957-4.405-4.032Zm-.224,8.064a1.509,1.509,0,0,1-1.717-1.269c0-1.195,1.269-1.568,2.315-1.568a3.874,3.874,0,0,1,2.016.523,2.658,2.658,0,0,1-2.613,2.315Zm12.469-7.691-2.539,6.347h-.075l-2.613-6.347h-2.315l3.883,8.885-2.24,4.928H168.2l5.973-13.813Zm-19.712,9.408h2.165V110.521h-2.165Z" transform="translate(-19.096 -88.644)"/><path class="e" d="M26.518,94.949A2.186,2.186,0,0,0,26,96.592v25.984a2.545,2.545,0,0,0,.523,1.643l.075.075,14.56-14.56v-.373L26.592,94.8Z" transform="translate(-6.806 -84.795)"/><path class="f" d="M51.079,117.88,46.3,113.027v-.373l4.779-4.853.075.075L56.9,111.16c1.643.9,1.643,2.464,0,3.36l-5.749,3.285Z" transform="translate(-11.954 -88.088)"/><path class="g" d="M46.262,119.528,41.335,114.6,26.7,129.235a1.917,1.917,0,0,0,2.464.075l17.1-9.781" transform="translate(-6.988 -89.811)"/><path class="h" d="M46.237,104.467,29.064,94.76a1.92,1.92,0,0,0-2.464.075l14.635,14.635Z" transform="translate(-6.963 -84.68)"/><path class="i" d="M46.113,121l-17.024,9.707a1.9,1.9,0,0,1-2.315,0h0l-.075.075h0l.075.075h0a1.9,1.9,0,0,0,2.315,0l17.173-9.707Z" transform="translate(-6.988 -91.432)"/><path class="j" d="M26.518,133.343A2.186,2.186,0,0,1,26,131.7v.149a2.545,2.545,0,0,0,.523,1.643l.075-.075Z" transform="translate(-6.806 -94.143)"/><path class="j" d="M58.6,116.043l-5.9,3.285.075.075,5.749-3.285a2.1,2.1,0,0,0,1.195-1.717h0a2.053,2.053,0,0,1-1.12,1.643Z" transform="translate(-13.575 -89.76)"/><path class="k" d="M28.887,94.921l22.848,12.992a2.373,2.373,0,0,1,1.195,1.493h0a2.205,2.205,0,0,0-1.195-1.717L28.887,94.772c-1.643-.9-2.987-.149-2.987,1.717v.149c.075-1.867,1.419-2.688,2.987-1.717Z" transform="translate(-6.786 -84.692)"/></g><g transform="translate(0.218 0.792)"><path class="b" d="M164.218-186.458H4.99a6.068,6.068,0,0,1-6.015-6.015v-38.495a6.068,6.068,0,0,1,6.015-6.015H164.218a6.091,6.091,0,0,1,6.124,6.015v38.495A6.164,6.164,0,0,1,164.218-186.458Z" transform="translate(1.025 236.982)"/><path d="M169.51-192.064a4.855,4.855,0,0,1-4.812,4.812H5.361a4.878,4.878,0,0,1-4.921-4.812v-38.495a4.878,4.878,0,0,1,4.921-4.812H164.589a4.784,4.784,0,0,1,4.812,4.812Z" transform="translate(0.654 236.574)"/><g transform="translate(16.25 7.874)"><path class="d" d="M42.764-206.748a7.551,7.551,0,0,1,3.5-6.124,7.665,7.665,0,0,0-5.905-3.171c-2.515-.219-4.921,1.531-6.234,1.531s-3.281-1.422-5.359-1.422a7.924,7.924,0,0,0-6.671,4.046c-2.843,4.921-.766,12.248,2.078,16.185,1.422,1.968,2.953,4.156,5.14,4.046,2.078-.109,2.843-1.312,5.359-1.312s3.171,1.312,5.359,1.312,3.609-1.968,4.921-3.937a19.224,19.224,0,0,0,2.3-4.593,6.851,6.851,0,0,1-4.484-6.562Z" transform="translate(-20.738 223.808)"/><path class="d" d="M43.138-221.3a7.274,7.274,0,0,0,1.64-5.14,7.822,7.822,0,0,0-4.812,2.406,7.152,7.152,0,0,0-1.75,4.921A6.116,6.116,0,0,0,43.138-221.3Z" transform="translate(-25.159 226.436)"/></g><g transform="translate(53.915 22.528)"><path class="d" d="M85.4-189.383H82.556L81.025-194.3H75.557l-1.531,4.921H71.182l5.468-16.841h3.39Zm-4.921-7.108-1.422-4.374c-.109-.437-.437-1.531-.875-3.171h0c-.219.766-.437,1.75-.766,3.171l-1.422,4.374Z" transform="translate(-71.182 206.662)"/><path class="d" d="M105-194.058a7.041,7.041,0,0,1-1.64,4.921,4.9,4.9,0,0,1-3.718,1.64,3.746,3.746,0,0,1-3.5-1.75h0v6.343H93.408v-13.014c0-1.312,0-2.625-.109-3.937H95.7l.109,1.969h0a4.6,4.6,0,0,1,4.156-2.187,4.672,4.672,0,0,1,3.609,1.64A6.553,6.553,0,0,1,105-194.058Zm-2.734.109a4.95,4.95,0,0,0-.766-2.953,2.9,2.9,0,0,0-2.406-1.2,2.97,2.97,0,0,0-1.859.656,3.22,3.22,0,0,0-1.094,1.75,2.463,2.463,0,0,0-.109.766v1.968a2.979,2.979,0,0,0,.766,2.187,2.451,2.451,0,0,0,2.078.875,2.9,2.9,0,0,0,2.406-1.2A3.738,3.738,0,0,0,102.266-193.948Z" transform="translate(-76.785 205.103)"/><path class="d" d="M123.748-194.058a7.041,7.041,0,0,1-1.64,4.921,4.9,4.9,0,0,1-3.718,1.64,3.746,3.746,0,0,1-3.5-1.75h0v6.343h-2.734v-13.014c0-1.312,0-2.625-.109-3.937h2.406l.109,1.969h0a4.6,4.6,0,0,1,4.156-2.187,4.672,4.672,0,0,1,3.609,1.64,6.553,6.553,0,0,1,1.422,4.374Zm-2.734.109a4.95,4.95,0,0,0-.766-2.953,2.9,2.9,0,0,0-2.406-1.2,2.97,2.97,0,0,0-1.859.656,3.22,3.22,0,0,0-1.094,1.75,2.463,2.463,0,0,0-.109.766v1.968a2.979,2.979,0,0,0,.766,2.187,2.451,2.451,0,0,0,2.078.875,2.9,2.9,0,0,0,2.406-1.2,3.738,3.738,0,0,0,.984-2.843Z" transform="translate(-81.535 205.103)"/><path class="d" d="M145.1-194.343a4.547,4.547,0,0,1-1.531,3.5,6.609,6.609,0,0,1-4.593,1.422,7.415,7.415,0,0,1-4.374-1.094l.656-2.3a7.14,7.14,0,0,0,3.937,1.094,3.929,3.929,0,0,0,2.406-.656,2.336,2.336,0,0,0,.875-1.859,2.681,2.681,0,0,0-.656-1.75,7.041,7.041,0,0,0-2.3-1.312c-2.953-1.094-4.484-2.734-4.484-4.812a4.32,4.32,0,0,1,1.531-3.39,6.109,6.109,0,0,1,4.156-1.312,7.962,7.962,0,0,1,3.828.766l-.656,2.187a6.6,6.6,0,0,0-3.281-.766,3.077,3.077,0,0,0-2.187.656,1.986,1.986,0,0,0-.656,1.531,1.968,1.968,0,0,0,.766,1.64,7.832,7.832,0,0,0,2.406,1.312,7.984,7.984,0,0,1,3.171,2.078,5.36,5.36,0,0,1,.984,3.062Z" transform="translate(-87.249 206.81)"/><path class="d" d="M158.187-198.922h-2.953v5.905c0,1.531.547,2.3,1.531,2.3a4.1,4.1,0,0,0,1.2-.109l.109,2.078a5.512,5.512,0,0,1-2.078.328,3.3,3.3,0,0,1-2.515-.984,5.123,5.123,0,0,1-.875-3.281v-6.124h-1.75v-1.968h1.75v-2.187l2.625-.766v3.062h2.953Z" transform="translate(-91.368 206.031)"/><path class="d" d="M174.607-194.095a6.566,6.566,0,0,1-1.64,4.593,5.848,5.848,0,0,1-4.484,1.859,5.454,5.454,0,0,1-4.265-1.75,6.294,6.294,0,0,1-1.64-4.484,6.566,6.566,0,0,1,1.64-4.593,5.535,5.535,0,0,1,4.374-1.75,5.454,5.454,0,0,1,4.265,1.75,5.69,5.69,0,0,1,1.75,4.374Zm-2.843.109a4.819,4.819,0,0,0-.766-2.843,2.631,2.631,0,0,0-2.406-1.422,2.8,2.8,0,0,0-2.515,1.422,5.883,5.883,0,0,0-.766,2.953,4.819,4.819,0,0,0,.766,2.843,2.631,2.631,0,0,0,2.406,1.422,2.631,2.631,0,0,0,2.406-1.422A4.7,4.7,0,0,0,171.764-193.985Z" transform="translate(-94.336 205.14)"/><path class="d" d="M188.179-197.778c-.219,0-.547-.109-.875-.109a2.429,2.429,0,0,0-2.187,1.094,4.159,4.159,0,0,0-.656,2.406v6.343h-2.734v-8.311c0-1.422,0-2.625-.109-3.828h2.406l.109,2.3h.109a6.205,6.205,0,0,1,1.312-1.968,3.276,3.276,0,0,1,1.968-.656h.656Z" transform="translate(-99.16 205.214)"/><path class="d" d="M202.99-194.569a4.1,4.1,0,0,1-.109,1.2h-8.093a3.4,3.4,0,0,0,1.2,2.734,3.99,3.99,0,0,0,2.625.875,10.31,10.31,0,0,0,3.281-.547l.437,1.859a9.546,9.546,0,0,1-4.046.766,6.116,6.116,0,0,1-4.484-1.64,6.116,6.116,0,0,1-1.64-4.484,7.046,7.046,0,0,1,1.531-4.593,5.29,5.29,0,0,1,4.265-1.968A4.416,4.416,0,0,1,201.9-198.4a6.106,6.106,0,0,1,1.094,3.828Zm-2.625-.656a3.3,3.3,0,0,0-.547-2.078,2.316,2.316,0,0,0-2.187-1.094,2.553,2.553,0,0,0-2.187,1.094,3.453,3.453,0,0,0-.766,2.078Z" transform="translate(-101.832 205.177)"/></g><g transform="translate(55.555 8.202)"><path class="d" d="M80.16-221.328a4.214,4.214,0,0,1-1.312,3.39,5.566,5.566,0,0,1-3.5,1.094,10.631,10.631,0,0,1-1.968-.109v-8.093a13.652,13.652,0,0,1,2.3-.219,4.9,4.9,0,0,1,3.281.984A3.413,3.413,0,0,1,80.16-221.328Zm-1.422,0a2.672,2.672,0,0,0-.766-2.187,3.081,3.081,0,0,0-2.3-.765,3.372,3.372,0,0,0-1.094.109v6.124h.875a3.6,3.6,0,0,0,2.406-.875,2.852,2.852,0,0,0,.875-2.406Z" transform="translate(-73.379 225.811)"/><path class="d" d="M90.453-219.42a3.433,3.433,0,0,1-.766,2.3,2.666,2.666,0,0,1-2.187.875,2.8,2.8,0,0,1-2.078-.875,2.979,2.979,0,0,1-.766-2.187,3.433,3.433,0,0,1,.766-2.3,3.054,3.054,0,0,1,2.187-.875,2.8,2.8,0,0,1,2.078.875A3.779,3.779,0,0,1,90.453-219.42Zm-1.422.109a3.027,3.027,0,0,0-.328-1.422,1.483,1.483,0,0,0-1.2-.766,1.183,1.183,0,0,0-1.2.766,3.027,3.027,0,0,0-.328,1.422,3.027,3.027,0,0,0,.328,1.422,1.483,1.483,0,0,0,1.2.766,1.276,1.276,0,0,0,1.2-.766,3.027,3.027,0,0,0,.328-1.422Z" transform="translate(-76.237 225.107)"/><path class="d" d="M102.854-222.189,101-216.283h-1.2l-.766-2.625a12.717,12.717,0,0,1-.437-1.968h0c-.109.656-.328,1.312-.437,1.968l-.875,2.625h-1.2l-1.75-5.905h1.312l.656,2.843c.109.656.328,1.312.437,1.859h0a8.386,8.386,0,0,1,.547-1.859l.875-2.843h1.094l.766,2.734a12.717,12.717,0,0,1,.437,1.968h0a12.712,12.712,0,0,1,.437-1.968l.766-2.734Z" transform="translate(-78.686 225.032)"/><path class="d" d="M113.232-216.358H111.92v-3.39c0-1.094-.437-1.531-1.2-1.531a1.066,1.066,0,0,0-.984.437,1.764,1.764,0,0,0-.328.984v3.5h-1.312v-6.015h1.2l.109.984h0c.109-.328.437-.547.656-.766a2.2,2.2,0,0,1,1.2-.328,2.3,2.3,0,0,1,1.422.547,2.674,2.674,0,0,1,.656,1.969v3.609Z" transform="translate(-82.174 225.107)"/><path class="d" d="M119.364-217.211h-1.312v-8.639h1.312Z" transform="translate(-84.697 225.96)"/><path class="d" d="M128.388-219.42a3.433,3.433,0,0,1-.766,2.3,2.666,2.666,0,0,1-2.187.875,2.8,2.8,0,0,1-2.078-.875,2.979,2.979,0,0,1-.766-2.187,3.433,3.433,0,0,1,.766-2.3,3.054,3.054,0,0,1,2.187-.875,2.8,2.8,0,0,1,2.078.875A3.152,3.152,0,0,1,128.388-219.42Zm-1.422.109a3.027,3.027,0,0,0-.328-1.422,1.483,1.483,0,0,0-1.2-.766,1.183,1.183,0,0,0-1.2.766,3.027,3.027,0,0,0-.328,1.422,3.027,3.027,0,0,0,.328,1.422,1.483,1.483,0,0,0,1.2.766,1.276,1.276,0,0,0,1.2-.766,3.027,3.027,0,0,0,.328-1.422Z" transform="translate(-85.847 225.107)"/><path class="d" d="M137.364-216.358h-1.2l-.109-.656h0a2.039,2.039,0,0,1-1.75.766,1.811,1.811,0,0,1-1.312-.547,1.645,1.645,0,0,1-.437-1.2,1.8,1.8,0,0,1,.875-1.64,4.474,4.474,0,0,1,2.625-.547v-.109a1.094,1.094,0,0,0-1.2-1.2,2.511,2.511,0,0,0-1.531.437l-.219-.875a3.89,3.89,0,0,1,2.078-.547c1.531,0,2.3.766,2.3,2.406v2.187a2.569,2.569,0,0,0-.109,1.531Zm-1.422-2.078v-.875c-1.422,0-2.187.328-2.187,1.2a.925.925,0,0,0,.219.656,1.555,1.555,0,0,0,.656.219.993.993,0,0,0,.766-.328c.219-.219.437-.437.437-.656.109,0,.109-.109.109-.219Z" transform="translate(-88.37 225.107)"/><path class="d" d="M147.136-217.248h-1.2l-.109-.984h0a1.89,1.89,0,0,1-1.969,1.094,2.125,2.125,0,0,1-1.75-.875,3.522,3.522,0,0,1-.766-2.187,3.081,3.081,0,0,1,.766-2.3,2.5,2.5,0,0,1,1.859-.875,1.726,1.726,0,0,1,1.64.766h0V-226h1.312v7.108a11.375,11.375,0,0,1,.219,1.64Zm-1.422-2.515v-1.422a1.762,1.762,0,0,0-.437-.766,1.242,1.242,0,0,0-.875-.328,1.567,1.567,0,0,0-1.2.547,2.314,2.314,0,0,0-.437,1.531,2.016,2.016,0,0,0,.437,1.422,1.282,1.282,0,0,0,1.2.547,1.4,1.4,0,0,0,1.094-.437A3.235,3.235,0,0,0,145.714-219.764Z" transform="translate(-90.597 225.997)"/><path class="d" d="M162.368-219.42a3.433,3.433,0,0,1-.766,2.3,2.666,2.666,0,0,1-2.187.875,2.8,2.8,0,0,1-2.078-.875,2.979,2.979,0,0,1-.766-2.187,3.433,3.433,0,0,1,.766-2.3,3.054,3.054,0,0,1,2.187-.875,2.8,2.8,0,0,1,2.078.875A3.152,3.152,0,0,1,162.368-219.42Zm-1.422.109a3.027,3.027,0,0,0-.328-1.422,1.483,1.483,0,0,0-1.2-.766,1.183,1.183,0,0,0-1.2.766,3.027,3.027,0,0,0-.328,1.422,3.027,3.027,0,0,0,.328,1.422,1.483,1.483,0,0,0,1.2.766,1.276,1.276,0,0,0,1.2-.766A3.027,3.027,0,0,0,160.947-219.31Z" transform="translate(-94.456 225.107)"/><path class="d" d="M172.111-216.358H170.8v-3.39c0-1.094-.437-1.531-1.2-1.531a1.066,1.066,0,0,0-.984.437,1.764,1.764,0,0,0-.328.984v3.5h-1.312v-6.015h1.2l.109.984h0c.109-.328.437-.547.656-.766a2.2,2.2,0,0,1,1.2-.328,2.3,2.3,0,0,1,1.422.547,2.674,2.674,0,0,1,.656,1.969v3.609Z" transform="translate(-97.09 225.107)"/><path class="d" d="M184.641-221.761h-1.422v2.843c0,.766.219,1.094.766,1.094a.819.819,0,0,0,.547-.109v.984a2.714,2.714,0,0,1-.984.109,1.363,1.363,0,0,1-1.2-.437,2.27,2.27,0,0,1-.437-1.64v-2.953h-.875v-.984h.875v-1.094l1.312-.437v1.531h1.422v1.094Z" transform="translate(-100.652 225.589)"/><path class="d" d="M193.458-217.248h-1.312v-3.39c0-1.094-.437-1.64-1.2-1.64a1.421,1.421,0,0,0-1.312.875c0,.109-.109.328-.109.437v3.609h-1.312V-226h1.312v3.609h0a1.971,1.971,0,0,1,1.75-.984,2.3,2.3,0,0,1,1.422.547,2.674,2.674,0,0,1,.656,1.968v3.609Z" transform="translate(-102.47 225.997)"/><path class="d" d="M203.308-219.676v.547h-3.937a1.811,1.811,0,0,0,.547,1.312,1.743,1.743,0,0,0,1.312.437,4.388,4.388,0,0,0,1.64-.328l.219.875a5.3,5.3,0,0,1-1.968.328,2.979,2.979,0,0,1-2.187-.766,2.979,2.979,0,0,1-.766-2.187,2.979,2.979,0,0,1,.766-2.187,2.54,2.54,0,0,1,2.078-.984,2.208,2.208,0,0,1,1.969.984,10.559,10.559,0,0,1,.328,1.968ZM202-220a2.184,2.184,0,0,0-.219-.984,1.207,1.207,0,0,0-1.094-.547,1.519,1.519,0,0,0-1.094.547,3.885,3.885,0,0,0-.437.984Z" transform="translate(-104.994 225.144)"/></g></g></g></svg>