<svg xmlns="http://www.w3.org/2000/svg" width="33.546" height="33.545" viewBox="0 0 33.546 33.545"><defs><style>.a{fill:#888;}.b{fill:#ba1f6a;}</style></defs><path class="a" d="M22.607,13.126a.73.73,0,0,0,.729-.729V3.646A3.65,3.65,0,0,0,19.69,0H3.646A3.65,3.65,0,0,0,0,3.646V29.9a3.65,3.65,0,0,0,3.646,3.646H19.69A3.65,3.65,0,0,0,23.336,29.9V21.148a.729.729,0,1,0-1.458,0V29.9a2.19,2.19,0,0,1-2.188,2.188H3.646A2.19,2.19,0,0,1,1.458,29.9V3.646A2.19,2.19,0,0,1,3.646,1.458H19.69a2.19,2.19,0,0,1,2.188,2.188V12.4A.73.73,0,0,0,22.607,13.126Z"/><g transform="translate(11.453 16.044)"><path class="b" d="M149.443,234.667H128.65a.734.734,0,0,0,0,1.458h20.793a.734.734,0,0,0,0-1.458Z" transform="translate(-128 -234.667)"/></g><g transform="translate(27.711 11.671)"><path class="b" d="M410.948,175.293l-4.375-4.375a.729.729,0,1,0-1.031,1.031l3.859,3.859-3.859,3.859a.73.73,0,0,0,1.031,1.033l4.375-4.375A.73.73,0,0,0,410.948,175.293Z" transform="translate(-405.328 -170.704)"/></g></svg>