<svg xmlns="http://www.w3.org/2000/svg" width="24" height="29.186" viewBox="0 0 24 29.186"><defs><style>.a{fill:#888;}</style></defs><g transform="translate(-0.5)"><path class="a" d="M24.5,6.475c0-.007,0-.014,0-.021s0-.028,0-.042A3.516,3.516,0,0,0,23.243,3.5L21.375,1.467c-.107-.116-.2-.222-.29-.32A2.569,2.569,0,0,0,18.616,0H2.369A1.872,1.872,0,0,0,.5,1.87V13.545a.431.431,0,1,0,.862,0V1.87A1.009,1.009,0,0,1,2.369.862H18.185l0,4.152a1.872,1.872,0,0,0,1.869,1.871h3.585V27.316a1.009,1.009,0,0,1-1.008,1.009H2.369a1.009,1.009,0,0,1-1.008-1.009v-11.8a.431.431,0,1,0-.862,0v11.8a1.872,1.872,0,0,0,1.869,1.87H22.631a1.872,1.872,0,0,0,1.869-1.87V6.953C24.5,6.781,24.5,6.623,24.5,6.475Zm-4.445-.452a1.01,1.01,0,0,1-1.008-1.008l0-4.142c.67.041.832.221,1.4.851.09.1.188.209.3.327l1.868,2.033a2.706,2.706,0,0,1,1.013,1.94Zm0,0"/><path class="a" d="M179.461,97.872a1.677,1.677,0,0,0-.814-.192,1.637,1.637,0,0,0-.87.228,1.587,1.587,0,0,0-.567.58,1.415,1.415,0,0,0-.2.693.5.5,0,0,0,.134.333.424.424,0,0,0,.336.158c.262,0,.378-.184.409-.433a1.672,1.672,0,0,1,.3-.54.651.651,0,0,1,.877,0,.587.587,0,0,1,.165.422.52.52,0,0,1-.053.236.914.914,0,0,1-.139.205c-.087.1-.186.194-.281.287a5.069,5.069,0,0,0-.36.385,1.39,1.39,0,0,0-.221.389,1.478,1.478,0,0,0-.084.522.556.556,0,0,0,.126.391.412.412,0,0,0,.313.136.418.418,0,0,0,.426-.409c.014-.076.031-.155.049-.232a.668.668,0,0,1,.045-.121.632.632,0,0,1,.086-.137,1.731,1.731,0,0,1,.163-.181c.176-.177.354-.357.523-.541a1.611,1.611,0,0,0,.26-.4,1.24,1.24,0,0,0,.113-.54,1.4,1.4,0,0,0-.194-.719A1.381,1.381,0,0,0,179.461,97.872Zm0,0" transform="translate(-166.453 -92.112)"/><path class="a" d="M195.61,173.488a.492.492,0,0,0-.376.168.636.636,0,0,0,.006.832.519.519,0,0,0,.37.153.5.5,0,0,0,.362-.157.575.575,0,0,0,.157-.423.593.593,0,0,0-.147-.405A.484.484,0,0,0,195.61,173.488Zm0,0" transform="translate(-183.49 -163.599)"/><path class="a" d="M59.66,266.655V268.2a.684.684,0,0,0,.683.683H62.99a.684.684,0,0,0,.683-.683v-1.541a.683.683,0,0,0-.683-.683H60.343A.683.683,0,0,0,59.66,266.655Zm.862.179h2.29v1.184h-2.29Zm0,0" transform="translate(-55.788 -250.811)"/><path class="a" d="M59.66,340.349a.684.684,0,0,0,.683.684H62.99a.684.684,0,0,0,.683-.684v-1.54a.684.684,0,0,0-.683-.685H60.343a.684.684,0,0,0-.683.685Zm.862-1.363h2.29v1.185h-2.29Zm0,0" transform="translate(-55.788 -318.85)"/><path class="a" d="M59.66,412.531a.684.684,0,0,0,.683.684H62.99a.684.684,0,0,0,.683-.684v-1.54a.683.683,0,0,0-.683-.683H60.343a.683.683,0,0,0-.683.683Zm.862-1.361h2.29v1.184h-2.29Zm0,0" transform="translate(-55.788 -386.919)"/><path class="a" d="M166.984,284.789H155.642a.431.431,0,1,0,0,.862h11.342a.431.431,0,1,0,0-.862Zm0,0" transform="translate(-145.892 -268.555)"/><path class="a" d="M277.44,356.063h-4.665a.431.431,0,0,0,0,.862h4.665a.431.431,0,0,0,0-.862Zm0,0" transform="translate(-256.347 -335.765)"/><path class="a" d="M155.642,356.924h4.7a.431.431,0,0,0,0-.862h-4.7a.431.431,0,1,0,0,.862Zm0,0" transform="translate(-145.892 -335.765)"/><path class="a" d="M155.642,429.108h11.342a.431.431,0,1,0,0-.862H155.642a.431.431,0,1,0,0,.862Zm0,0" transform="translate(-145.892 -403.834)"/><path class="a" d="M117.377,52.742a5.3,5.3,0,1,0,5.3,5.3A5.3,5.3,0,0,0,117.377,52.742Zm0,9.737a4.438,4.438,0,1,1,4.435-4.438A4.441,4.441,0,0,1,117.377,62.479Zm0,0" transform="translate(-105.221 -49.736)"/></g></svg>