<svg xmlns="http://www.w3.org/2000/svg" width="23.688" height="29.811" viewBox="0 0 23.688 29.811"><defs><style>.a{fill:#888;}</style></defs><path class="a" d="M19,29.811h2.57a2.119,2.119,0,0,0,2.117-2.117V2.117A2.119,2.119,0,0,0,21.571,0H2.117A2.119,2.119,0,0,0,0,2.117V27.694a2.119,2.119,0,0,0,2.117,2.117H17.254a.437.437,0,1,0,0-.873H2.117A1.245,1.245,0,0,1,.873,27.694V2.117A1.245,1.245,0,0,1,2.117.873H21.571a1.245,1.245,0,0,1,1.244,1.243V27.694a1.245,1.245,0,0,1-1.244,1.244H19a.437.437,0,1,0,0,.873Zm0,0"/><path class="a" d="M66.017,363.5H63.585a.437.437,0,1,0,0,.873h2.432a.437.437,0,1,0,0-.873Zm0,0" transform="translate(-59.472 -342.335)"/><path class="a" d="M169,363.5h-9.9a.437.437,0,1,0,0,.873H169a.437.437,0,1,0,0-.873Zm0,0" transform="translate(-149.43 -342.335)"/><path class="a" d="M66.017,424.168H63.585a.437.437,0,0,0,0,.873h2.432a.437.437,0,0,0,0-.873Zm0,0" transform="translate(-59.472 -399.471)"/><path class="a" d="M159.1,425.041H169a.437.437,0,1,0,0-.873h-9.9a.437.437,0,0,0,0,.873Zm0,0" transform="translate(-149.43 -399.471)"/><path class="a" d="M31.6,11.676h-.508V8.33a.908.908,0,0,0-.907-.907h-.536v-2.9a.908.908,0,0,0-.907-.907H25.924V2.372a.59.59,0,0,0-.274-.5.914.914,0,0,0,.176-.54c0-.449-.623-1.129-.748-1.261a.239.239,0,0,0-.343,0c-.125.132-.748.812-.748,1.261a.914.914,0,0,0,.176.54.59.59,0,0,0-.274.5V3.617H22.868a.236.236,0,1,0,0,.472h5.874a.435.435,0,0,1,.435.435v.861a.853.853,0,0,1-.218-.158,1.327,1.327,0,0,0-1.878,0,.854.854,0,0,1-1.209,0,1.327,1.327,0,0,0-1.878,0,.854.854,0,0,1-1.209,0,1.327,1.327,0,0,0-1.878,0,.854.854,0,0,1-.269.181V4.525a.435.435,0,0,1,.435-.435h.85a.236.236,0,0,0,0-.472h-.85a.908.908,0,0,0-.907.907v2.9H19.63a.908.908,0,0,0-.907.907v.657h0v2.688h-.508a.813.813,0,1,0,0,1.627h1.7a.236.236,0,1,0,0-.472h-1.7a.341.341,0,1,1,0-.682H31.6a.341.341,0,1,1,0,.682H20.858a.236.236,0,1,0,0,.472h2.506a3.247,3.247,0,0,1-1.188,1.573.688.688,0,0,0,.42,1.233h4.621a.688.688,0,0,0,.42-1.233A3.248,3.248,0,0,1,26.45,13.3H31.6a.813.813,0,1,0,0-1.627ZM24.907.591a1.9,1.9,0,0,1,.447.743.447.447,0,1,1-.894,0A1.9,1.9,0,0,1,24.907.591Zm-.545,1.781a.118.118,0,0,1,.118-.118h.853a.118.118,0,0,1,.118.118V3.617H24.363ZM19.63,7.895h7.317a.236.236,0,0,0,0-.472H20.638V5.907a1.329,1.329,0,0,0,.6-.346.854.854,0,0,1,1.209,0,1.327,1.327,0,0,0,1.878,0,.854.854,0,0,1,1.209,0,1.327,1.327,0,0,0,1.878,0,.854.854,0,0,1,1.209,0,1.315,1.315,0,0,0,.552.332v1.53H27.892a.236.236,0,0,0,0,.472h2.293a.435.435,0,0,1,.435.435v.491a1.325,1.325,0,0,0-.451.3.854.854,0,0,1-1.209,0,1.327,1.327,0,0,0-1.878,0,.854.854,0,0,1-1.209,0,1.327,1.327,0,0,0-1.878,0,.854.854,0,0,1-1.209,0,1.327,1.327,0,0,0-1.878,0,.854.854,0,0,1-1.209,0,1.32,1.32,0,0,0-.5-.316V8.33A.435.435,0,0,1,19.63,7.895ZM19.2,9.321a.856.856,0,0,1,.168.131,1.327,1.327,0,0,0,1.878,0,.854.854,0,0,1,1.209,0,1.327,1.327,0,0,0,1.878,0,.854.854,0,0,1,1.209,0,1.327,1.327,0,0,0,1.878,0,.854.854,0,0,1,1.209,0,1.327,1.327,0,0,0,1.878,0,.855.855,0,0,1,.117-.1v2.322H19.2Zm8.152,5.927a.213.213,0,0,1,.073.244.208.208,0,0,1-.2.144H22.6a.208.208,0,0,1-.2-.144.213.213,0,0,1,.073-.244A3.61,3.61,0,0,0,23.855,13.3H25.96A3.61,3.61,0,0,0,27.348,15.247Z" transform="translate(-13.402 2.459)"/></svg>