<svg xmlns="http://www.w3.org/2000/svg" width="15.938" height="22.5" viewBox="0 0 15.938 22.5"><defs><style>.a{fill:#ba1f6a;}</style></defs><g transform="translate(-74.667)"><g transform="translate(74.667 9.375)"><path class="a" d="M88.261,213.333H77.011a2.346,2.346,0,0,0-2.344,2.344v8.438a2.346,2.346,0,0,0,2.344,2.344h11.25a2.346,2.346,0,0,0,2.344-2.344v-8.437A2.346,2.346,0,0,0,88.261,213.333Zm1.406,10.781a1.408,1.408,0,0,1-1.406,1.406H77.011a1.408,1.408,0,0,1-1.406-1.406v-8.437a1.408,1.408,0,0,1,1.406-1.406h11.25a1.408,1.408,0,0,1,1.406,1.406Z" transform="translate(-74.667 -213.333)"/></g><g transform="translate(76.542)"><path class="a" d="M123.427,0a6.1,6.1,0,0,0-6.094,6.094v3.75a.469.469,0,0,0,.469.469h11.25a.469.469,0,0,0,.469-.469V6.094A6.1,6.1,0,0,0,123.427,0Zm5.156,9.375H118.271V6.094a5.156,5.156,0,0,1,10.312,0Z" transform="translate(-117.333)"/></g><g transform="translate(82.167 15.938)"><path class="a" d="M245.8,362.667a.469.469,0,0,0-.469.469v2.813a.469.469,0,0,0,.938,0v-2.812A.469.469,0,0,0,245.8,362.667Z" transform="translate(-245.333 -362.667)"/></g><g transform="translate(80.292 12.187)"><path class="a" d="M205.011,277.333a2.344,2.344,0,1,0,2.344,2.344A2.346,2.346,0,0,0,205.011,277.333Zm0,3.75a1.406,1.406,0,1,1,1.406-1.406A1.408,1.408,0,0,1,205.011,281.083Z" transform="translate(-202.667 -277.333)"/></g></g></svg>