<svg xmlns="http://www.w3.org/2000/svg" width="23.878" height="29.965" viewBox="0 0 23.878 29.965"><defs><style>.a{fill:#888;}</style></defs><g transform="translate(-52)"><g transform="translate(52)"><path class="a" d="M320.726,150.238h-2.309a.59.59,0,0,0,0,1.18h2.309a.59.59,0,0,0,0-1.18Z" transform="translate(-302.268 -141.445)"/><path class="a" d="M282.961,189.852H278.3a.59.59,0,0,0,0,1.18h4.657a.59.59,0,0,0,0-1.18Z" transform="translate(-264.504 -178.741)"/><path class="a" d="M75.875,4.49a.594.594,0,0,0-.17-.359L71.747.173A.6.6,0,0,0,71.329,0H53.759A1.761,1.761,0,0,0,52,1.759V14.648a.59.59,0,1,0,1.18,0V1.759a.579.579,0,0,1,.579-.579h16.98v2.2A1.762,1.762,0,0,0,72.5,5.139h2.2V28.2a.581.581,0,0,1-.58.581H53.759a.58.58,0,0,1-.579-.581V19.468a.59.59,0,1,0-1.18,0V28.2a1.762,1.762,0,0,0,1.759,1.761H74.118A1.763,1.763,0,0,0,75.878,28.2V4.549a.609.609,0,0,0,0-.063s0,.018,0,0ZM71.919,3.38V2.015l1.944,1.944H72.5A.58.58,0,0,1,71.919,3.38Z" transform="translate(-52)"/><path class="a" d="M130.607,252.261a.59.59,0,0,0-.829.1l-1.93,2.444-.505-.4a.59.59,0,0,0-.732.926l.968.766a.59.59,0,0,0,.366.127.6.6,0,0,0,.069,0,.59.59,0,0,0,.395-.22l2.3-2.907A.59.59,0,0,0,130.607,252.261Z" transform="translate(-122.034 -237.378)"/><path class="a" d="M130.607,350.759a.59.59,0,0,0-.829.1l-1.93,2.444-.505-.4a.59.59,0,1,0-.732.926l.968.766a.59.59,0,0,0,.829-.1l2.3-2.907A.59.59,0,0,0,130.607,350.759Z" transform="translate(-122.034 -330.111)"/><path class="a" d="M278.049,151.418h.015a.59.59,0,0,0,0-1.18h-.015a.59.59,0,0,0,0,1.18Z" transform="translate(-264.264 -141.445)"/><path class="a" d="M52.59,281.243a.59.59,0,0,0,.59-.59v-.017a.59.59,0,1,0-1.18,0v.017A.59.59,0,0,0,52.59,281.243Z" transform="translate(-52 -263.656)"/><path class="a" d="M233.1,254.992a.59.59,0,0,0,.59.59H241.2a.59.59,0,0,0,0-1.18h-7.509A.59.59,0,0,0,233.1,254.992Z" transform="translate(-222.499 -239.513)"/><path class="a" d="M241.2,301.808h-7.509a.59.59,0,0,0,0,1.18H241.2a.59.59,0,0,0,0-1.18Z" transform="translate(-222.499 -284.145)"/><path class="a" d="M241.2,349.356h-7.509a.59.59,0,0,0,0,1.18H241.2a.59.59,0,0,0,0-1.18Z" transform="translate(-222.499 -328.91)"/><path class="a" d="M241.2,396.762h-7.509a.59.59,0,0,0,0,1.18H241.2a.59.59,0,0,0,0-1.18Z" transform="translate(-222.499 -373.541)"/><path class="a" d="M282.961,109.887H278.3a.59.59,0,0,0,0,1.18h4.657a.59.59,0,0,0,0-1.18Z" transform="translate(-264.504 -103.456)"/><path class="a" d="M126.388,65.261V67.12a.59.59,0,0,0,.59.59h5.851a.59.59,0,0,0,.59-.59V65.261a2.372,2.372,0,0,0-1.442-2.18,2.666,2.666,0,1,0-4.145,0A2.372,2.372,0,0,0,126.388,65.261Zm3.516-5.34a1.486,1.486,0,1,1-1.486,1.486A1.487,1.487,0,0,1,129.9,59.92Zm-2.336,5.34a1.189,1.189,0,0,1,1.187-1.188h2.3a1.189,1.189,0,0,1,1.187,1.188v1.269h-4.67Z" transform="translate(-122.034 -55.302)"/></g></g></svg>