<svg xmlns="http://www.w3.org/2000/svg" width="23.688" height="29.811" viewBox="0 0 23.688 29.811"><defs><style>.a{fill:#888;}</style></defs><path class="a" d="M19,29.811h2.57a2.119,2.119,0,0,0,2.117-2.117V2.117A2.119,2.119,0,0,0,21.571,0H2.117A2.119,2.119,0,0,0,0,2.117V27.694a2.119,2.119,0,0,0,2.117,2.117H17.254a.437.437,0,1,0,0-.873H2.117A1.245,1.245,0,0,1,.873,27.694V2.117A1.245,1.245,0,0,1,2.117.873H21.571a1.245,1.245,0,0,1,1.244,1.243V27.694a1.245,1.245,0,0,1-1.244,1.244H19a.437.437,0,1,0,0,.873Zm0,0"/><path class="a" d="M71.342,61.854a.437.437,0,0,0,.2-.05,19.6,19.6,0,0,0,6.27-4.773A6.658,6.658,0,0,0,79.5,52.588a4.232,4.232,0,0,0-2.738-3.736,5.332,5.332,0,0,0-5.421,1.143,5.832,5.832,0,0,0-2.886-1.4,4.832,4.832,0,0,0-3.044.489.437.437,0,1,0,.414.769,4.411,4.411,0,0,1,5.21,1.045.437.437,0,0,0,.61,0,4.552,4.552,0,0,1,4.8-1.234,3.326,3.326,0,0,1,2.183,2.971c.073,1.292-.5,4.668-7.288,8.287-4.051-2.161-6.595-4.67-7.172-7.079a3.549,3.549,0,0,1,.489-2.966.437.437,0,1,0-.712-.506,4.455,4.455,0,0,0-.627,3.676c.457,1.909,2.185,4.8,7.818,7.757A.438.438,0,0,0,71.342,61.854Zm0,0" transform="translate(-59.498 -45.706)"/><path class="a" d="M134.084,141.14v-.661a.437.437,0,1,0-.873,0v.661a.437.437,0,1,0,.873,0Zm0,0" transform="translate(-125.455 -131.889)"/><path class="a" d="M259.494,141.14v-.661a.437.437,0,1,0-.873,0v.661a.437.437,0,1,0,.873,0Zm0,0" transform="translate(-243.563 -131.889)"/><path class="a" d="M181.778,151.872a1.628,1.628,0,0,0,1.23-.548.437.437,0,0,0-.658-.575.781.781,0,0,1-1.144,0,.437.437,0,0,0-.658.575A1.628,1.628,0,0,0,181.778,151.872Zm0,0" transform="translate(-169.934 -141.831)"/><path class="a" d="M66.017,302.832H63.585a.437.437,0,0,0,0,.873h2.432a.437.437,0,0,0,0-.873Zm0,0" transform="translate(-59.472 -285.2)"/><path class="a" d="M169,302.832h-9.9a.437.437,0,0,0,0,.873H169a.437.437,0,1,0,0-.873Zm0,0" transform="translate(-149.43 -285.2)"/><path class="a" d="M66.017,363.5H63.585a.437.437,0,1,0,0,.873h2.432a.437.437,0,1,0,0-.873Zm0,0" transform="translate(-59.472 -342.335)"/><path class="a" d="M169,363.5h-9.9a.437.437,0,1,0,0,.873H169a.437.437,0,1,0,0-.873Zm0,0" transform="translate(-149.43 -342.335)"/><path class="a" d="M66.017,424.168H63.585a.437.437,0,0,0,0,.873h2.432a.437.437,0,0,0,0-.873Zm0,0" transform="translate(-59.472 -399.471)"/><path class="a" d="M159.1,425.041H169a.437.437,0,1,0,0-.873h-9.9a.437.437,0,0,0,0,.873Zm0,0" transform="translate(-149.43 -399.471)"/></svg>