<svg xmlns="http://www.w3.org/2000/svg" width="40.153" height="35.967" viewBox="0 0 40.153 35.967"><defs><style>.a{fill:#ba1f6a;}</style></defs><path class="a" d="M45.124,11.927c-2.245-4.714-5.758-8.047-9.633-9.2a27.615,27.615,0,0,0-14.542-.1C15.654,4.031,11.516,6.934,9.305,10.8h0a17.153,17.153,0,0,0-1.918,5.519c-.776,4.338.805,9.047,4.431,13.254a24.276,24.276,0,0,0,11.517,7.505,19.7,19.7,0,0,0,4.88.581,23.472,23.472,0,0,0,8.95-1.791c4.958-2.079,8.364-5.631,9.594-10A20.4,20.4,0,0,0,45.124,11.927Zm-.249,13.454c-1.01,3.582-3.743,6.549-7.735,8.428A16.065,16.065,0,0,0,41.991,27.1c2.928-4.846,2.367-6.568,1.8-8.4-.093-.3-.19-.62-.268-.952C41.615,9.5,36.13,4.421,28.474,3.8a30.289,30.289,0,0,0-3.065-.1,24.888,24.888,0,0,1,9.506.825c3.352.976,6.432,3.982,8.447,8.193a18.631,18.631,0,0,1,1.513,12.663ZM9.291,16.641A15.3,15.3,0,0,1,11,11.717h0a14.977,14.977,0,0,1,6.749-5.929c-3.026,2.04-4.841,5.656-5.856,11.17a21.362,21.362,0,0,0,.283,9.994C9.725,23.57,8.7,19.959,9.291,16.641ZM20.178,24.59c1.615,3.606,4.807,5.422,8.984,5.07,3.7-.332,6.217-1.952,7.1-4.612.976-2.9-.3-6.671-3.006-8.96a7.442,7.442,0,0,0-8.3-1.157,5.362,5.362,0,0,0-3.2,3.694,5.788,5.788,0,0,0,.683,3.967,3.9,3.9,0,0,0,.249.722,4.25,4.25,0,0,0,2.274,2.245c2.689,2.337,4.7,2,5.661,1.581,2-.864,3.245-3.606,2.894-6.378a5.369,5.369,0,0,0-4.5-5.007,5.578,5.578,0,0,0-5.231,2.079,6.573,6.573,0,0,0-.625.9,4.1,4.1,0,0,1,2.44-2.621,6.1,6.1,0,0,1,6.773.976c2.308,1.952,3.416,5.124,2.6,7.539-.7,2.1-2.8,3.416-5.914,3.684-3.538.317-6.237-1.191-7.593-4.241-2.015-4.485-.752-10.814,2.718-13.835,1.757-1.518,4.812-2.786,9.4-.2,4.167,2.357,6.144,9.057,5.583,13.918a6.666,6.666,0,0,1-3.25,5.09c-2.84,1.737-7.383,2-11.307.654a8.158,8.158,0,0,1-5.622-7.354,14.757,14.757,0,0,1,.181-4.124,13.332,13.332,0,0,0,1.015,6.363Zm7.647-5.09c2.669,2.6,3.284,4.192,3,4.768-.1.2-.654.825-3.567.488a5.856,5.856,0,0,1-1.542-.366,14.234,14.234,0,0,1-1.108-1.122,7.32,7.32,0,0,1-.839-1.157A4.455,4.455,0,0,1,24.853,18.7a4.028,4.028,0,0,1,7.276,2.225,6.241,6.241,0,0,1-.083,2.05,13.135,13.135,0,0,0-3.27-4.392l-.356-.346-.976.947Zm-10.2,2.987a9.534,9.534,0,0,0,6.554,8.481c4.358,1.493,9.272,1.191,12.493-.786a7.949,7.949,0,0,0,3.9-6.075c.61-5.275-1.61-12.6-6.256-15.22C30.562,6.764,27,6.671,24.15,8.6a11.16,11.16,0,0,1,2.123-1.649,6.588,6.588,0,0,1,7.271.059c4.88,3.123,9.272,9.462,8.3,15.533a19.817,19.817,0,0,1-1.074,3.992c-.634,1.049-1.358,2.845-2.28,4.177h0A14.221,14.221,0,0,1,25.6,35.589a15.743,15.743,0,0,1-1.757-.342,20.981,20.981,0,0,1-8.2-4.563l-.181-.229c-2.44-3.231-3.2-7.808-2.2-13.278,1.605-8.74,5.163-12.146,12.688-12.146h1.1a10.218,10.218,0,0,0-1.513.732C20.593,8.721,16.972,16.358,17.626,22.487Z" transform="translate(-7.195 -1.697)"/></svg>